<?xml version="1.0" standalone="no"?>
<!DOCTYPE svg PUBLIC "-//W3C//DTD SVG 20010904//EN"
 "http://www.w3.org/TR/2001/REC-SVG-20010904/DTD/svg10.dtd">
<svg version="1.0" xmlns="http://www.w3.org/2000/svg"
 width="512.000000pt" height="512.000000pt" viewBox="0 0 512.000000 512.000000"
 preserveAspectRatio="xMidYMid meet">

<g transform="translate(0.000000,512.000000) scale(0.100000,-0.100000)"
fill="#ffffff" stroke="none">
<path d="M2287 4785 c-213 -27 -408 -79 -602 -162 -489 -209 -899 -596 -1131
-1068 -153 -312 -219 -572 -231 -915 -16 -441 93 -864 316 -1233 l50 -83 -184
-487 c-101 -269 -180 -487 -175 -485 4 2 222 84 483 182 l475 179 100 -61
c370 -229 805 -344 1246 -329 348 12 607 77 921 231 647 318 1108 948 1222
1668 25 158 25 518 0 676 -37 234 -96 418 -207 647 -107 221 -228 392 -409
579 -335 345 -781 577 -1256 652 -138 22 -479 27 -618 9z m377 -1870 c156
-151 288 -275 293 -275 4 0 228 113 497 250 269 138 491 248 494 246 4 -5
-1088 -1206 -1097 -1206 -4 0 -143 128 -311 285 -193 180 -310 283 -319 280
-8 -3 -244 -132 -524 -286 -281 -153 -512 -277 -515 -275 -2 3 24 36 59 75
146 159 1125 1181 1132 1181 4 0 135 -124 291 -275z"/>
</g>
</svg>
